# xmcd
#
# Track frame offsets:
#	150
#	20237
#	40245
#
# Disc length: 804 seconds
#
# Revision: 0
# Processed by: cddbd v1.5.1PL0 Copyright (c) Steve Scherf et al.
# Submitted via: audiograbber 1.83.01
#
DISCID=21032203
DTITLE=Jennifer Brown - Single
DYEAR=1900
DGENRE=
TTITLE0=My Everything
TTITLE1=How Happy
TTITLE2=My Everything (karaoke)
EXTD=
EXTT0=
EXTT1=
EXTT2=
PLAYORDER=
